<?xml version="1.0" standalone="no"?>
<svg xmlns:xlink="http://www.w3.org/1999/xlink" id="wave" style="transform:rotate(180deg); transition: 0.3s" viewBox="0 0 1440 490" version="1.1" xmlns="http://www.w3.org/2000/svg"><defs><linearGradient id="sw-gradient-0" x1="0" x2="0" y1="1" y2="0"><stop stop-color="rgba(119, 103, 228, 1)" offset="0%"/><stop stop-color="rgba(78, 125, 243, 1)" offset="100%"/></linearGradient></defs><path style="transform:translate(0, 0px); opacity:1" fill="url(#sw-gradient-0)" d="M0,147L80,179.7C160,212,320,278,480,261.3C640,245,800,147,960,147C1120,147,1280,245,1440,261.3C1600,278,1760,212,1920,228.7C2080,245,2240,343,2400,392C2560,441,2720,441,2880,408.3C3040,376,3200,310,3360,285.8C3520,261,3680,278,3840,294C4000,310,4160,327,4320,294C4480,261,4640,180,4800,179.7C4960,180,5120,261,5280,318.5C5440,376,5600,408,5760,400.2C5920,392,6080,343,6240,318.5C6400,294,6560,294,6720,294C6880,294,7040,294,7200,261.3C7360,229,7520,163,7680,155.2C7840,147,8000,196,8160,245C8320,294,8480,343,8640,351.2C8800,359,8960,327,9120,285.8C9280,245,9440,196,9600,196C9760,196,9920,245,10080,245C10240,245,10400,196,10560,212.3C10720,229,10880,310,11040,334.8C11200,359,11360,327,11440,310.3L11520,294L11520,490L11440,490C11360,490,11200,490,11040,490C10880,490,10720,490,10560,490C10400,490,10240,490,10080,490C9920,490,9760,490,9600,490C9440,490,9280,490,9120,490C8960,490,8800,490,8640,490C8480,490,8320,490,8160,490C8000,490,7840,490,7680,490C7520,490,7360,490,7200,490C7040,490,6880,490,6720,490C6560,490,6400,490,6240,490C6080,490,5920,490,5760,490C5600,490,5440,490,5280,490C5120,490,4960,490,4800,490C4640,490,4480,490,4320,490C4160,490,4000,490,3840,490C3680,490,3520,490,3360,490C3200,490,3040,490,2880,490C2720,490,2560,490,2400,490C2240,490,2080,490,1920,490C1760,490,1600,490,1440,490C1280,490,1120,490,960,490C800,490,640,490,480,490C320,490,160,490,80,490L0,490Z"/></svg>